<?xml version="1.0" encoding="UTF-8"?>
<!-- Generator: visioncortex VTracer 0.6.4 -->
<svg version="1.1" xmlns="http://www.w3.org/2000/svg" width="4096" height="1994">
<path d="M0,0 L530,0 L544,25 L560,53 L574,78 L588,102 L600,124 L612,145 L628,173 L642,198 L653,217 L653,219 L280,219 L280,374 L617,374 L617,571 L280,571 L280,725 L747,725 L747,940 L0,940 Z " fill="#FFFFFF" transform="translate(0,978)"/>
<path d="M0,0 L312,0 L317,8 L328,30 L338,49 L356,84 L368,107 L385,140 L399,167 L414,196 L428,223 L443,252 L458,281 L471,306 L474,302 L513,224 L523,205 L556,139 L566,120 L600,52 L610,33 L626,1 L627,0 L936,0 L934,5 L919,32 L905,56 L891,81 L877,105 L861,133 L845,161 L830,187 L814,215 L798,243 L783,269 L767,297 L751,325 L736,351 L720,379 L704,407 L689,433 L673,461 L657,489 L642,515 L626,543 L611,569 L610,940 L330,940 L329,570 L315,546 L300,520 L286,496 L271,470 L257,446 L242,420 L228,396 L213,370 L198,344 L184,320 L169,294 L155,270 L140,244 L126,220 L111,194 L96,168 L82,144 L67,118 L53,94 L38,68 L23,42 L9,18 L0,3 Z " fill="#FFFFFF" transform="translate(616,978)"/>
<path d="M0,0 L3,0 L3,363 L-10,366 L-412,439 L-902,528 L-1034,552 L-1524,641 L-1656,665 L-1849,700 L-1853,699 L-1833,691 L-1777,670 L-1716,647 L-1655,624 L-1594,601 L-1533,578 L-1464,552 L-1403,529 L-1342,506 L-1281,483 L-1220,460 L-1159,437 L-1098,414 L-1037,391 L-976,368 L-915,345 L-846,319 L-785,296 L-724,273 L-663,250 L-602,227 L-541,204 L-480,181 L-419,158 L-358,135 L-297,112 L-228,86 L-167,63 L-106,40 L-45,17 Z " fill="#FFE600" transform="translate(1853,0)"/>
<path d="M0,0 L119,0 L133,2 L149,7 L162,14 L172,23 L181,37 L185,49 L186,55 L186,76 L182,90 L175,102 L169,109 L160,116 L171,123 L181,132 L189,145 L193,159 L194,172 L192,192 L187,208 L181,219 L172,229 L163,237 L147,245 L134,249 L121,251 L0,251 Z M49,45 L49,98 L114,98 L124,95 L130,91 L134,85 L135,82 L135,69 L133,58 L128,51 L118,46 L113,45 Z M49,139 L49,210 L116,210 L128,206 L135,201 L141,191 L142,188 L142,169 L139,155 L133,147 L126,142 L115,139 Z " fill="#FFFFFF" transform="translate(1594,1348)"/>
<path d="M0,0 L41,0 L60,72 L66,98 L69,112 L73,97 L79,69 L90,0 L135,0 L131,16 L111,88 L88,170 L85,181 L84,182 L43,182 L24,108 L16,77 L15,75 L10,94 L4,113 L-13,185 L-14,186 L-55,186 L-75,115 L-101,22 L-105,8 L-105,4 L-57,4 L-46,45 L-35,87 L-29,112 L-18,66 L-1,1 Z " fill="#FFFFFF" transform="translate(2983,1736)"/>
<path d="M0,0 L41,0 L47,21 L62,77 L69,109 L70,110 L77,80 L80,62 L86,8 L87,3 L131,3 L130,11 L106,97 L83,179 L81,185 L40,185 L37,177 L16,103 L9,76 L8,75 L1,100 L-3,114 L-16,182 L-17,185 L-55,185 L-77,106 L-100,24 L-105,6 L-105,3 L-57,3 L-51,24 L-33,93 L-29,110 L-26,101 L-17,62 L-1,2 Z " fill="#FFFFFF" transform="translate(1685,1733)"/>
<path d="M0,0 L23,0 L37,5 L45,10 L45,3 L90,3 L90,176 L88,197 L83,216 L75,231 L67,241 L55,250 L42,256 L27,260 L20,261 L1,261 L-13,226 L-13,224 L7,223 L23,220 L37,213 L43,206 L47,195 L49,176 L37,185 L26,190 L20,192 L6,193 L-8,191 L-21,186 L-31,179 L-36,174 L-43,166 L-51,151 L-56,135 L-59,119 L-60,109 L-60,81 L-57,61 L-52,45 L-45,31 L-38,22 L-28,12 L-14,4 Z M17,40 L6,43 L-3,51 L-8,61 L-11,72 L-12,81 L-12,101 L-10,116 L-6,129 L0,139 L7,145 L15,148 L28,148 L38,145 L47,138 L52,131 L52,57 L45,49 L36,43 L24,40 Z " fill="#FFFFFF" transform="translate(2673,1733)"/>
<path d="M0,0 L16,2 L28,7 L39,15 L40,16 L41,4 L79,4 L79,176 L77,197 L73,212 L67,226 L59,237 L51,245 L37,254 L34,255 L-13,255 L-24,227 L-24,225 L-5,224 L11,221 L23,216 L30,210 L35,200 L37,188 L37,177 L29,184 L15,191 L8,193 L-4,194 L-19,192 L-32,187 L-42,180 L-52,170 L-60,156 L-65,143 L-69,127 L-71,110 L-71,82 L-68,62 L-63,46 L-56,32 L-49,23 L-39,13 L-25,5 L-11,1 Z M6,41 L-2,43 L-9,47 L-16,55 L-21,68 L-23,82 L-23,102 L-21,117 L-17,130 L-11,140 L-4,146 L4,149 L17,149 L27,146 L36,139 L41,132 L41,58 L34,50 L25,44 L13,41 Z " fill="#FFFFFF" transform="translate(2713,1413)"/>
<path d="M0,0 L2,0 L2,262 L-43,262 L-44,250 L-55,258 L-65,263 L-72,265 L-84,266 L-100,264 L-113,259 L-124,251 L-131,244 L-138,233 L-143,223 L-148,207 L-151,189 L-152,175 L-152,161 L-150,141 L-145,122 L-139,108 L-130,95 L-121,86 L-108,78 L-96,74 L-81,72 L-65,74 L-53,79 L-43,86 L-39,89 L-40,87 L-43,30 L-43,22 L-24,12 Z M-71,113 L-79,115 L-86,119 L-93,127 L-98,140 L-100,154 L-100,174 L-97,193 L-92,206 L-85,215 L-79,219 L-73,221 L-62,221 L-51,217 L-40,208 L-36,204 L-36,130 L-44,122 L-53,116 L-64,113 Z " fill="#FFFFFF" transform="translate(2326,1341)"/>
<path d="M0,0 L2,0 L3,81 L13,73 L24,68 L31,66 L43,65 L58,67 L70,71 L80,77 L90,86 L98,97 L104,109 L108,122 L110,133 L111,146 L110,178 L107,198 L102,215 L94,231 L85,242 L75,250 L62,256 L54,258 L39,259 L27,257 L15,252 L4,244 L3,243 L2,255 L-43,255 L-43,22 L-24,12 Z M30,106 L21,108 L10,114 L2,123 L2,198 L9,206 L17,211 L27,214 L39,214 L48,210 L54,205 L60,195 L64,182 L66,166 L66,149 L64,135 L59,121 L50,111 L42,107 L37,106 Z " fill="#FFFFFF" transform="translate(3225,1348)"/>
<path d="M0,0 L9,0 L9,255 L-36,255 L-37,243 L-48,251 L-58,256 L-72,259 L-88,258 L-102,254 L-112,248 L-122,239 L-129,230 L-136,216 L-141,200 L-144,183 L-145,170 L-145,152 L-143,133 L-139,117 L-132,101 L-123,88 L-114,79 L-101,71 L-89,67 L-84,66 L-62,66 L-50,70 L-38,77 L-34,81 L-34,64 L-36,28 L-36,18 Z M-33,82 Z M-68,106 L-78,109 L-86,115 L-92,125 L-96,140 L-97,160 L-95,181 L-91,194 L-86,203 L-81,208 L-76,212 L-70,214 L-58,214 L-48,211 L-40,205 L-33,198 L-32,196 L-32,124 L-42,114 L-52,108 L-61,106 Z " fill="#FFFFFF" transform="translate(3682,1667)"/>
<path d="M0,0 L9,0 L10,139 L20,125 L25,120 L27,120 L29,116 L41,100 L55,82 L62,73 L114,73 L112,77 L98,96 L82,117 L72,131 L74,137 L93,180 L112,223 L125,253 L125,255 L73,255 L55,218 L42,190 L34,174 L29,178 L20,189 L10,200 L9,255 L-35,255 L-35,18 L-16,8 Z " fill="#FFFFFF" transform="translate(2188,1667)"/>
<path d="M0,0 L21,0 L38,3 L52,8 L63,15 L73,25 L81,41 L83,50 L83,186 L39,186 L38,174 L29,182 L18,187 L9,189 L-6,190 L-23,188 L-38,183 L-49,177 L-59,168 L-66,158 L-71,146 L-73,137 L-73,112 L-70,100 L-63,87 L-52,76 L-40,69 L-25,64 L-14,62 L12,62 L32,66 L38,68 L38,53 L34,43 L29,39 L18,35 L-7,35 L-25,39 L-41,45 L-54,27 L-59,20 L-59,18 L-42,10 L-24,4 L-9,1 Z M-1,99 L-11,102 L-20,108 L-25,118 L-25,130 L-21,138 L-13,145 L-4,148 L2,149 L11,149 L25,146 L35,140 L43,131 L43,106 L23,100 L16,99 Z " fill="#FFFFFF" transform="translate(2980,1417)"/>
<path d="M0,0 L26,0 L42,4 L56,11 L66,19 L71,23 L82,37 L90,53 L95,69 L97,82 L97,106 L94,123 L89,138 L81,153 L72,164 L65,171 L51,180 L40,185 L29,188 L22,189 L4,189 L-14,185 L-30,177 L-39,170 L-50,159 L-59,145 L-64,134 L-69,117 L-71,100 L-71,89 L-69,72 L-65,57 L-59,43 L-51,31 L-40,19 L-28,10 L-15,4 Z M11,40 L2,42 L-7,48 L-13,55 L-18,65 L-22,81 L-22,108 L-18,123 L-12,135 L-4,143 L4,147 L8,148 L19,148 L29,144 L37,137 L44,125 L48,111 L49,104 L49,85 L46,69 L42,59 L35,50 L28,44 L21,41 Z " fill="#FFFFFF" transform="translate(1897,1733)"/>
<path d="M0,0 L17,0 L32,3 L48,11 L58,21 L66,35 L71,50 L74,71 L74,186 L29,186 L28,71 L25,59 L19,50 L13,45 L4,42 L-9,42 L-20,46 L-25,50 L-31,61 L-34,77 L-35,186 L-83,186 L-83,4 L-38,4 L-37,16 L-30,10 L-18,4 L-8,1 Z " fill="#FFFFFF" transform="translate(2511,1736)"/>
<path d="M0,0 L27,0 L42,4 L57,12 L70,23 L80,36 L88,51 L94,69 L97,85 L97,109 L94,124 L89,139 L81,153 L73,163 L64,172 L50,181 L34,187 L23,189 L4,189 L-10,186 L-25,180 L-35,173 L-45,164 L-52,156 L-61,141 L-67,124 L-70,108 L-70,80 L-67,64 L-61,48 L-55,37 L-48,28 L-40,19 L-27,10 L-15,4 Z M11,40 L1,43 L-8,49 L-15,59 L-20,72 L-22,83 L-22,106 L-18,123 L-11,136 L-2,144 L8,148 L19,148 L29,144 L37,137 L43,128 L47,117 L49,106 L49,82 L45,66 L39,54 L34,48 L24,42 L16,40 Z " fill="#FFFFFF" transform="translate(3198,1733)"/>
<path d="M0,0 L16,1 L31,5 L43,11 L54,20 L64,33 L72,49 L77,68 L79,84 L79,110 L-33,110 L-30,123 L-25,133 L-17,141 L-7,146 L0,148 L14,148 L25,145 L35,140 L41,135 L45,136 L59,147 L75,159 L74,163 L62,173 L49,181 L34,187 L18,190 L-1,190 L-18,187 L-34,181 L-45,174 L-57,163 L-64,153 L-71,139 L-76,122 L-78,107 L-78,84 L-75,65 L-70,50 L-61,33 L-50,21 L-41,13 L-26,5 L-11,1 Z M-1,41 L-11,44 L-20,50 L-26,59 L-29,66 L-30,77 L34,77 L34,67 L30,56 L26,50 L18,44 L6,41 Z " fill="#FFFFFF" transform="translate(3869,1413)"/>
<path d="M0,0 L16,1 L31,5 L44,12 L54,21 L62,30 L70,45 L75,60 L78,77 L79,93 L79,110 L-34,110 L-31,124 L-26,134 L-17,142 L-5,147 L0,148 L14,148 L27,144 L37,138 L40,135 L45,136 L61,149 L74,159 L74,162 L67,169 L57,176 L42,184 L30,188 L18,190 L-1,190 L-18,187 L-32,182 L-44,175 L-54,166 L-62,157 L-68,147 L-75,128 L-78,111 L-78,80 L-74,60 L-68,45 L-61,33 L-52,22 L-43,14 L-29,6 L-12,1 Z M-5,41 L-15,44 L-24,50 L-30,59 L-33,67 L-34,77 L30,77 L30,67 L26,55 L19,47 L11,43 L2,41 Z " fill="#FFFFFF" transform="translate(3438,1413)"/>
<path d="M0,0 L17,1 L28,4 L42,11 L49,17 L57,28 L64,44 L68,64 L69,81 L69,186 L24,186 L23,74 L19,58 L13,49 L7,45 L-4,42 L-12,42 L-23,45 L-30,50 L-35,58 L-38,67 L-39,73 L-42,150 L-43,178 L-44,186 L-88,186 L-88,4 L-44,4 L-44,17 L-32,8 L-20,3 L-11,1 Z " fill="#FFFFFF" transform="translate(2549,1413)"/>
<path d="M0,0 L45,0 L46,114 L49,126 L55,136 L64,142 L73,144 L81,144 L92,141 L101,133 L106,122 L108,110 L109,0 L153,0 L153,182 L109,182 L108,170 L95,179 L82,184 L68,186 L52,185 L38,181 L26,174 L17,165 L9,152 L3,134 L0,113 Z " fill="#FFFFFF" transform="translate(1819,1421)"/>
<path d="M0,0 L2,0 L2,69 L41,69 L41,114 L2,114 L3,198 L8,208 L13,212 L15,213 L26,213 L39,209 L45,207 L44,224 L42,246 L38,250 L27,254 L20,255 L-3,255 L-15,252 L-24,247 L-30,242 L-37,231 L-41,220 L-43,209 L-43,114 L-72,114 L-72,69 L-43,69 L-43,22 L-24,12 Z " fill="#FFFFFF" transform="translate(3602,1348)"/>
<path d="M0,0 L1,0 L1,69 L41,69 L41,114 L1,114 L2,192 L5,204 L11,211 L15,213 L26,213 L36,210 L45,207 L43,234 L42,245 L40,249 L31,253 L20,255 L-3,255 L-15,252 L-24,247 L-31,241 L-37,231 L-41,221 L-43,210 L-43,114 L-72,114 L-72,69 L-43,69 L-43,22 L-24,12 Z " fill="#FFFFFF" transform="translate(3729,1348)"/>
<path d="M0,0 L16,0 L16,255 L-29,255 L-29,15 L-10,5 Z " fill="#FFFFFF" transform="translate(3490,1667)"/>
<path d="M0,0 L17,2 L28,6 L34,10 L33,20 L24,56 L20,54 L12,49 L1,46 L-12,46 L-21,49 L-27,53 L-33,62 L-37,78 L-38,186 L-82,186 L-82,4 L-38,4 L-37,16 L-32,11 L-27,7 L-19,3 L-11,1 Z " fill="#FFFFFF" transform="translate(4062,1413)"/>
<path d="M0,0 L14,0 L28,3 L38,8 L41,10 L40,18 L31,51 L28,51 L18,45 L7,42 L-6,42 L-15,45 L-23,52 L-28,62 L-30,71 L-31,186 L-76,186 L-76,4 L-31,4 L-30,15 L-21,7 L-13,3 Z " fill="#FFFFFF" transform="translate(2098,1736)"/>
<path d="M0,0 L2,0 L2,262 L-42,262 L-42,21 Z " fill="#FFFFFF" transform="translate(2144,1341)"/>
<path d="M0,0 L14,0 L28,3 L38,8 L41,11 L36,41 L34,52 L24,49 L9,43 L5,42 L-6,42 L-17,46 L-22,51 L-27,59 L-30,69 L-31,78 L-32,186 L-76,186 L-76,4 L-32,4 L-31,16 L-27,11 L-16,4 Z " fill="#FFFFFF" transform="translate(3396,1736)"/>
<path d="M0,0 L45,0 L45,186 L0,186 Z " fill="#FFFFFF" transform="translate(2341,1736)"/>
<path d="M0,0 L44,0 L44,182 L0,182 Z " fill="#FFFFFF" transform="translate(2019,1421)"/>
<path d="M0,0 L44,0 L44,182 L0,182 Z " fill="#FFFFFF" transform="translate(2374,1417)"/>
<path d="M0,0 L44,0 L44,45 L0,45 Z " fill="#FFFFFF" transform="translate(2345,1667)"/>
<path d="M0,0 L44,0 L44,45 L0,45 Z " fill="#FFFFFF" transform="translate(2374,1348)"/>
<path d="M0,0 L44,0 L44,45 L0,45 Z " fill="#FFFFFF" transform="translate(2019,1348)"/>
</svg>
